<mxfile host="app.diagrams.net" modified="2023-09-05T20:08:21.641Z" agent="Mozilla/5.0 (Macintosh; Intel Mac OS X 10_15_7) AppleWebKit/537.36 (KHTML, like Gecko) Chrome/116.0.0.0 Safari/537.36" etag="EQmg_fvYAPb0hOp1lSUS" version="21.7.2" type="github">
  <diagram name="페이지-1" id="pEcurvLlHpeU_JNwvySe">
    <mxGraphModel dx="1728" dy="938" grid="1" gridSize="10" guides="1" tooltips="1" connect="1" arrows="1" fold="1" page="1" pageScale="1" pageWidth="827" pageHeight="1169" math="0" shadow="0">
      <root>
        <mxCell id="0" />
        <mxCell id="1" parent="0" />
        <mxCell id="9eChaW0kfDDzRU_OJGd2-2" value="이용자&lt;br&gt;" style="shape=umlActor;verticalLabelPosition=bottom;verticalAlign=top;html=1;" vertex="1" parent="1">
          <mxGeometry x="50" y="170" width="60" height="120" as="geometry" />
        </mxCell>
        <mxCell id="9eChaW0kfDDzRU_OJGd2-3" value="커뮤니티 서비스" style="shape=umlFrame;whiteSpace=wrap;html=1;pointerEvents=0;width=110;height=27;" vertex="1" parent="1">
          <mxGeometry x="150" y="30" width="555.58" height="690" as="geometry" />
        </mxCell>
        <mxCell id="9eChaW0kfDDzRU_OJGd2-18" value="" style="rounded=0;orthogonalLoop=1;jettySize=auto;html=1;endArrow=none;endFill=0;entryX=1;entryY=0.3333333333333333;entryDx=0;entryDy=0;entryPerimeter=0;exitX=0;exitY=0.5;exitDx=0;exitDy=0;" edge="1" parent="1" source="9eChaW0kfDDzRU_OJGd2-5" target="9eChaW0kfDDzRU_OJGd2-2">
          <mxGeometry relative="1" as="geometry" />
        </mxCell>
        <mxCell id="9eChaW0kfDDzRU_OJGd2-5" value="회원 가입" style="rounded=1;whiteSpace=wrap;html=1;arcSize=40;fontColor=#000000;fillColor=#ffffc0;strokeColor=#ff0000;" vertex="1" parent="1">
          <mxGeometry x="180" y="190" width="120" height="40" as="geometry" />
        </mxCell>
        <mxCell id="9eChaW0kfDDzRU_OJGd2-19" style="rounded=0;orthogonalLoop=1;jettySize=auto;html=1;entryX=1;entryY=0.3333333333333333;entryDx=0;entryDy=0;entryPerimeter=0;endArrow=none;endFill=0;exitX=0;exitY=0.5;exitDx=0;exitDy=0;" edge="1" parent="1" source="9eChaW0kfDDzRU_OJGd2-8" target="9eChaW0kfDDzRU_OJGd2-2">
          <mxGeometry relative="1" as="geometry" />
        </mxCell>
        <mxCell id="9eChaW0kfDDzRU_OJGd2-26" style="edgeStyle=orthogonalEdgeStyle;rounded=0;orthogonalLoop=1;jettySize=auto;html=1;exitX=1;exitY=0.5;exitDx=0;exitDy=0;dashed=1;" edge="1" parent="1" source="9eChaW0kfDDzRU_OJGd2-8" target="9eChaW0kfDDzRU_OJGd2-11">
          <mxGeometry relative="1" as="geometry" />
        </mxCell>
        <mxCell id="9eChaW0kfDDzRU_OJGd2-27" value="&amp;lt;&amp;lt;include&amp;gt;&amp;gt;" style="edgeLabel;html=1;align=center;verticalAlign=middle;resizable=0;points=[];" vertex="1" connectable="0" parent="9eChaW0kfDDzRU_OJGd2-26">
          <mxGeometry x="-0.0621" y="-3" relative="1" as="geometry">
            <mxPoint x="1" y="-3" as="offset" />
          </mxGeometry>
        </mxCell>
        <mxCell id="9eChaW0kfDDzRU_OJGd2-8" value="로그인" style="rounded=1;whiteSpace=wrap;html=1;arcSize=40;fontColor=#000000;fillColor=#ffffc0;strokeColor=#ff0000;" vertex="1" parent="1">
          <mxGeometry x="320" y="50" width="120" height="40" as="geometry" />
        </mxCell>
        <mxCell id="9eChaW0kfDDzRU_OJGd2-21" style="rounded=0;orthogonalLoop=1;jettySize=auto;html=1;endArrow=none;endFill=0;" edge="1" parent="1" source="9eChaW0kfDDzRU_OJGd2-9">
          <mxGeometry relative="1" as="geometry">
            <mxPoint x="110" y="210" as="targetPoint" />
          </mxGeometry>
        </mxCell>
        <mxCell id="9eChaW0kfDDzRU_OJGd2-31" style="rounded=0;orthogonalLoop=1;jettySize=auto;html=1;dashed=1;" edge="1" parent="1" source="9eChaW0kfDDzRU_OJGd2-9">
          <mxGeometry relative="1" as="geometry">
            <mxPoint x="380" y="90" as="targetPoint" />
          </mxGeometry>
        </mxCell>
        <mxCell id="9eChaW0kfDDzRU_OJGd2-9" value="게시글 조회" style="rounded=1;whiteSpace=wrap;html=1;arcSize=40;fontColor=#000000;fillColor=#ffffc0;strokeColor=#ff0000;" vertex="1" parent="1">
          <mxGeometry x="180" y="550" width="120" height="40" as="geometry" />
        </mxCell>
        <mxCell id="9eChaW0kfDDzRU_OJGd2-20" style="rounded=0;orthogonalLoop=1;jettySize=auto;html=1;endArrow=none;endFill=0;" edge="1" parent="1" source="9eChaW0kfDDzRU_OJGd2-10">
          <mxGeometry relative="1" as="geometry">
            <mxPoint x="110" y="210" as="targetPoint" />
          </mxGeometry>
        </mxCell>
        <mxCell id="9eChaW0kfDDzRU_OJGd2-30" style="rounded=0;orthogonalLoop=1;jettySize=auto;html=1;entryX=0.5;entryY=1;entryDx=0;entryDy=0;dashed=1;" edge="1" parent="1" source="9eChaW0kfDDzRU_OJGd2-10" target="9eChaW0kfDDzRU_OJGd2-8">
          <mxGeometry relative="1" as="geometry" />
        </mxCell>
        <mxCell id="9eChaW0kfDDzRU_OJGd2-10" value="게시판 조회" style="rounded=1;whiteSpace=wrap;html=1;arcSize=40;fontColor=#000000;fillColor=#ffffc0;strokeColor=#ff0000;" vertex="1" parent="1">
          <mxGeometry x="180" y="350" width="120" height="40" as="geometry" />
        </mxCell>
        <mxCell id="9eChaW0kfDDzRU_OJGd2-11" value="인증" style="rounded=1;whiteSpace=wrap;html=1;arcSize=40;fontColor=#000000;fillColor=#ffffc0;strokeColor=#ff0000;" vertex="1" parent="1">
          <mxGeometry x="534" y="50" width="120" height="40" as="geometry" />
        </mxCell>
        <mxCell id="9eChaW0kfDDzRU_OJGd2-28" style="rounded=0;orthogonalLoop=1;jettySize=auto;html=1;entryX=1;entryY=0.5;entryDx=0;entryDy=0;dashed=1;" edge="1" parent="1" source="9eChaW0kfDDzRU_OJGd2-12" target="9eChaW0kfDDzRU_OJGd2-8">
          <mxGeometry relative="1" as="geometry" />
        </mxCell>
        <mxCell id="9eChaW0kfDDzRU_OJGd2-29" value="&amp;lt;&amp;lt;extend&amp;gt;&amp;gt;" style="edgeLabel;html=1;align=center;verticalAlign=middle;resizable=0;points=[];" vertex="1" connectable="0" parent="9eChaW0kfDDzRU_OJGd2-28">
          <mxGeometry x="0.1234" y="2" relative="1" as="geometry">
            <mxPoint as="offset" />
          </mxGeometry>
        </mxCell>
        <mxCell id="9eChaW0kfDDzRU_OJGd2-12" value="로그인 실패" style="rounded=1;whiteSpace=wrap;html=1;arcSize=40;fontColor=#000000;fillColor=#ffffc0;strokeColor=#ff0000;" vertex="1" parent="1">
          <mxGeometry x="534" y="120" width="120" height="40" as="geometry" />
        </mxCell>
        <mxCell id="9eChaW0kfDDzRU_OJGd2-32" style="edgeStyle=orthogonalEdgeStyle;rounded=0;orthogonalLoop=1;jettySize=auto;html=1;entryX=1;entryY=0.5;entryDx=0;entryDy=0;dashed=1;" edge="1" parent="1" source="9eChaW0kfDDzRU_OJGd2-13" target="9eChaW0kfDDzRU_OJGd2-10">
          <mxGeometry relative="1" as="geometry" />
        </mxCell>
        <mxCell id="9eChaW0kfDDzRU_OJGd2-13" value="게시판 정렬" style="rounded=1;whiteSpace=wrap;html=1;arcSize=40;fontColor=#000000;fillColor=#ffffc0;strokeColor=#ff0000;" vertex="1" parent="1">
          <mxGeometry x="414" y="350" width="120" height="40" as="geometry" />
        </mxCell>
        <mxCell id="9eChaW0kfDDzRU_OJGd2-33" style="rounded=0;orthogonalLoop=1;jettySize=auto;html=1;dashed=1;exitX=0;exitY=0.5;exitDx=0;exitDy=0;" edge="1" parent="1" source="9eChaW0kfDDzRU_OJGd2-14">
          <mxGeometry relative="1" as="geometry">
            <mxPoint x="300" y="370" as="targetPoint" />
          </mxGeometry>
        </mxCell>
        <mxCell id="9eChaW0kfDDzRU_OJGd2-14" value="게시판 검색" style="rounded=1;whiteSpace=wrap;html=1;arcSize=40;fontColor=#000000;fillColor=#ffffc0;strokeColor=#ff0000;" vertex="1" parent="1">
          <mxGeometry x="414" y="430" width="120" height="40" as="geometry" />
        </mxCell>
        <mxCell id="9eChaW0kfDDzRU_OJGd2-35" style="rounded=0;orthogonalLoop=1;jettySize=auto;html=1;entryX=1;entryY=0.5;entryDx=0;entryDy=0;dashed=1;exitX=0;exitY=0.5;exitDx=0;exitDy=0;" edge="1" parent="1" source="9eChaW0kfDDzRU_OJGd2-16" target="9eChaW0kfDDzRU_OJGd2-9">
          <mxGeometry relative="1" as="geometry" />
        </mxCell>
        <mxCell id="9eChaW0kfDDzRU_OJGd2-16" value="댓글 조회, 쓰기,&lt;br&gt;수정, 삭제" style="rounded=1;whiteSpace=wrap;html=1;arcSize=40;fontColor=#000000;fillColor=#ffffc0;strokeColor=#ff0000;" vertex="1" parent="1">
          <mxGeometry x="414" y="640" width="120" height="40" as="geometry" />
        </mxCell>
        <mxCell id="9eChaW0kfDDzRU_OJGd2-34" style="rounded=0;orthogonalLoop=1;jettySize=auto;html=1;dashed=1;" edge="1" parent="1" source="9eChaW0kfDDzRU_OJGd2-17" target="9eChaW0kfDDzRU_OJGd2-9">
          <mxGeometry relative="1" as="geometry" />
        </mxCell>
        <mxCell id="9eChaW0kfDDzRU_OJGd2-17" value="게시글 쓰기, 수정, 삭제" style="rounded=1;whiteSpace=wrap;html=1;arcSize=40;fontColor=#000000;fillColor=#ffffc0;strokeColor=#ff0000;" vertex="1" parent="1">
          <mxGeometry x="414" y="550" width="120" height="40" as="geometry" />
        </mxCell>
        <mxCell id="9eChaW0kfDDzRU_OJGd2-37" style="rounded=0;orthogonalLoop=1;jettySize=auto;html=1;entryX=1;entryY=0.5;entryDx=0;entryDy=0;endArrow=none;endFill=0;exitX=0;exitY=0.5;exitDx=0;exitDy=0;" edge="1" parent="1" source="9eChaW0kfDDzRU_OJGd2-36" target="9eChaW0kfDDzRU_OJGd2-11">
          <mxGeometry relative="1" as="geometry" />
        </mxCell>
        <mxCell id="9eChaW0kfDDzRU_OJGd2-38" style="rounded=0;orthogonalLoop=1;jettySize=auto;html=1;entryX=1;entryY=0.5;entryDx=0;entryDy=0;endArrow=none;endFill=0;" edge="1" parent="1" source="9eChaW0kfDDzRU_OJGd2-36" target="9eChaW0kfDDzRU_OJGd2-10">
          <mxGeometry relative="1" as="geometry" />
        </mxCell>
        <mxCell id="9eChaW0kfDDzRU_OJGd2-39" style="rounded=0;orthogonalLoop=1;jettySize=auto;html=1;entryX=1;entryY=0.5;entryDx=0;entryDy=0;endArrow=none;endFill=0;" edge="1" parent="1" target="9eChaW0kfDDzRU_OJGd2-9">
          <mxGeometry relative="1" as="geometry">
            <mxPoint x="820" y="220" as="sourcePoint" />
            <Array as="points">
              <mxPoint x="600" y="450" />
            </Array>
          </mxGeometry>
        </mxCell>
        <mxCell id="9eChaW0kfDDzRU_OJGd2-40" style="rounded=0;orthogonalLoop=1;jettySize=auto;html=1;entryX=1;entryY=0.5;entryDx=0;entryDy=0;endArrow=none;endFill=0;exitX=-0.022;exitY=0.638;exitDx=0;exitDy=0;exitPerimeter=0;" edge="1" parent="1" source="9eChaW0kfDDzRU_OJGd2-36" target="9eChaW0kfDDzRU_OJGd2-17">
          <mxGeometry relative="1" as="geometry" />
        </mxCell>
        <mxCell id="9eChaW0kfDDzRU_OJGd2-42" style="rounded=0;orthogonalLoop=1;jettySize=auto;html=1;entryX=1;entryY=0.5;entryDx=0;entryDy=0;endArrow=none;endFill=0;exitX=0.009;exitY=0.583;exitDx=0;exitDy=0;exitPerimeter=0;" edge="1" parent="1" source="9eChaW0kfDDzRU_OJGd2-36" target="9eChaW0kfDDzRU_OJGd2-16">
          <mxGeometry relative="1" as="geometry" />
        </mxCell>
        <mxCell id="9eChaW0kfDDzRU_OJGd2-36" value="DB" style="html=1;whiteSpace=wrap;" vertex="1" parent="1">
          <mxGeometry x="820" y="157.5" width="80" height="105" as="geometry" />
        </mxCell>
      </root>
    </mxGraphModel>
  </diagram>
</mxfile>
